<?xml version="1.0" encoding="utf-8"?>
<!-- Generator: Adobe Illustrator 18.1.0, SVG Export Plug-In . SVG Version: 6.00 Build 0)  -->
<svg version="1.1" id="Layer_1" xmlns="http://www.w3.org/2000/svg" xmlns:xlink="http://www.w3.org/1999/xlink" x="0px" y="0px"
	 viewBox="0 0 145.5 69.5" enable-background="new 0 0 145.5 69.5" xml:space="preserve">
<g>
	<path fill="#FFFFFF" d="M87.6,4.6c0.5,0.7,0.4,0.5,0.9,0.5v0.4c-0.5,0.6-0.7,2.4-2.1,3.8c0,0,0.2,1.1,0,1.8c-0.3,1-0.5,1-1.5,2
		c0,0,0.2,1.1,0,1.8c-0.2,0.7-0.9,0.4-1,1.5c0,0-0.3,1.9-0.5,3.1c-0.3,1.3-1.1,2.1-0.8,3.3l-0.1,4.8c-0.9,0.6-0.7,3.5-2,4.8v1.8
		c-0.3,0.9-1.2,0.9-1.5,2.5v5.6l-1.5,4.4c0,0,0.2,1.6,0,2.6c-0.3,1.8-1.8,4.2-1.8,4.2c0.1,0.4-0.5,1.8-0.5,1.8c0,0.3-0.4,1-0.5,1.2
		c0.3,0.2,0.4,0.4,0.6,0.4c0.2,0,0.3-0.2,0.5-0.5c1,0.5,1.8,0,2.9,0c0.7-0.1,0.2-1.2,0.9-1.9c0.7-0.7,2.3-0.9,2.8-1.2
		c2-1.4,2.9-0.7,4.3-3c0.2,0.2,0.3,0.3,0.5,0.5h2.5c0.3,0.5,0.8,0.8,0.8,1.4c0,0.3-0.5,0.3-0.5,1.5c0,1,0.5,1.3,0.5,1.6v4.6
		c-0.7,0.5-0.4,0.3-0.5,0.8h-7.3c-0.1-0.2-0.2-0.4-0.4-0.5l-2.7-0.3c-0.4,0.5-1.3,1.1-1.9,1.3c-1.9,0-3,0.1-4.1,0.1
		c-0.6,0.1-1.9,0.9-2.9,0.9c-0.7-0.8-0.4-1.6-0.4-2v-1.9c0.2-0.1,0.4-0.2,0.5-0.4c0.4-0.5,0-1.8,0-1.8c0.4-0.3,0.8-0.5,1-1
		c0.3-0.6,0-1.8,0-1.8c0.2-0.1,0.3-0.2,0.5-0.4c0.4-0.5,0-1.6,0-1.6c0-0.1,0.4-0.7,0.5-1.2c0.4-1.4,0-3.7,0-3.7
		c0-0.6-0.3-0.7-0.5-1.2c-1.1-3.1,0-8.4,0-8.4l3-8c0-0.3-0.4-0.4-0.5-0.7c-0.1-0.3,0-0.4,0-0.7c0,0,0.8-0.7,0.8-1.6
		c0-0.4,0-0.6,0-0.8c0.1-0.4,1.3-2.1,1.5-3.5c0.1-0.6,0-1.5,0-1.5c0-0.3,2.1-5.3,3.5-6.5v-1.8c0.1-0.1,0.5-0.4,0.5-0.7
		c0-0.3-0.1-0.2-0.4-0.5h-2.7c-0.1-0.2-0.2-0.4-0.4-0.5c-0.7-0.7-2.3,0-2.7,0c-0.6,0-1.4,1.6-1.9,4.5c-0.8,5.2-1.6,2.2-2.5,3.8
		c-0.2-0.2-0.5-0.5-0.6-0.5c0.6-1.5,0-1.8,0-2.6c0-0.4,0.5-0.8,0.8-1.1V4.6C71,4.6,73.6,4.6,87.6,4.6z"/>
	<path fill="#FFFFFF" d="M102.4,37.3c-0.2-0.1-1.1-6.9-0.6-5.7v-2.9c-1.2-0.9,0.2-0.9-1-2v-2.2c-0.2-0.1-0.3-0.3-0.5-0.4l-1.6-6.3
		c0,0-1.8-4.7-1.8-6.1v-1.5c0-0.5-0.4-0.2-1.8-3.1c-0.2-0.4-0.1-3-1.5-3c-1.8,0-0.1,3.1-1.6,3.3c-0.9,0.6-0.4,0.6-1.1,1.1v2.2
		c-0.7,0.6-0.7,0.9-1,1.5c-0.6,1-1.1,2.9-1.1,2.9c-0.2,0.2-0.3,0.2-0.5,0.4c-0.4,0.5,0.2,1,0,1.8c-0.6,0.5-0.9,1.5-1.4,2.5
		c-0.9,1.9-0.1,4.5-1.4,5.3c0,1.7-0.6,2.9-0.6,2.9c-0.4,0.7-0.7,1-1,1.7c-0.3,1,0.2,1.3-0.1,2.7c-0.2,1.2,0.5,0.6,0.5,1.2
		c0,0.4-0.1,0.6-0.5,0.8v2.2c-0.2,0.2-0.3,0.2-0.5,0.4c-0.6,0.7,0,2.3,0,2.3c-0.2,0.2-0.5,3-0.5,3c0.3,0.2,0.5,0.3,0.5,0.5
		c0,0.5-1.2,0.7-1.6,1.4c-0.4,0.7-0.4,2-0.4,2c-0.7,0.6-0.9,0.8-1.8,2.1c0.6,1,0.1,0.7,0.7,1.7c0,0,2.7-1,5.2-1.8
		c0.8-0.2,4.3,0,4.3,0c0.1-0.8,1.1-1.4,0.7-1.5c-0.6-0.1-1.1-1.1-1.7-1.1v-2.9L88.2,41h1.3c0.6,0.8,6.2,3.1,6.2,4.2
		c-0.2,4.6-3.3,7.9-3.3,7.9c0,2.2,2.5,3,2.5,4.4V59l1.5,4.9v2.9c0.7-0.4,0.4,0,0.6,0c0.3,0,0.3-0.2,0.8-0.6v-2.3
		c0.2-0.2,0.3-0.3,0.5-0.4v-1.8c0.7-0.7,0.8-3,1.5-3.5v-2.9c1.2-1.2,1.8-5.2,2.5-5.7C102.6,48.4,102.6,38.9,102.4,37.3z M96.3,38.8
		c-0.2,0-0.4,0-0.6,0c-1.1-0.3-1.9-1.3-3.3-1.6c-1.2-0.2-2.3-0.1-3,0c0,0,0-0.3,0.5-0.4c0.2-0.8-0.2-3.7,0-4.8
		c0.4-0.5,0.5-3.4,0.5-3.4c1.2-0.1,0.7-1.3,1.5-1.9l0.1-3.4c0,0,0.5,1.9,1.2,2.7c0.6,0.6,1.4,0.3,2.1,1c0.8,0.8,0.5,3.4,1,3.8
		C96.4,31.9,96.3,38.8,96.3,38.8z"/>
	<path fill="#FFFFFF" d="M51.6,6.5c0,0,0.6-0.8,0.5-1.4c7.1,0,7.8,0.1,14.8,0.1v2.6c0,0.6,0.5,0.7,0.5,1.2v9.1
		c-1.2,1-0.5,3.3-0.5,3.3c-1.6,1.1-2.4,5.4-3.2,6.2V30c0,0-2.1,0.9-2.5,2c-0.3,0.8,0,2.3,0,2.3c-1.9,0.8-4.4,8.1-4.4,8.7v1.4
		c-0.1-0.5-2.3,6.5-3,7.4c0.5,0.8,0.4,0.5,1,0.5c0.6,0,0.7-0.3,2.7-1.2c0.2-0.1,0.9,0.2,2.4-0.5c0.7-0.3,2.1-4.4,4.5-4.4
		c0-0.3,0.4-1.7,0.9-2.2c0.1,0.2,0.2,0.4,0.4,0.5c1.9-0.8,1.2-1.8,1.9-2.7h1.1c0,0-0.1,2.1,0.3,3c-0.9,0.3-0.6,1-1.2,1.6
		c-0.4,0.8,0,7.6,0,7.6c-0.3,0-1.7,0.5-2,1.1h-5.6c-0.5-0.8-0.3-0.5-1.1-0.5c-1.4,0-1,1.1-1.9,1.1c0,0-1.2-0.2-1.6-0.8h-3.9
		c-0.3-0.5-0.5-0.4-0.5-0.8c0-0.1,0.5-0.6,0.8-0.8V50c0.7-0.5,0.5-0.4,0.5-1c0-0.2-0.7-1.7-1-1.9c0.8-1.1,0-2,0-2
		c-0.3-1.7,0.6-4.2,0.5-5.3c0.6-0.5,0.4-2.1,1-3.3c0.5-1,1.8-2.5,1.8-2.5c0.2-0.4-0.1-1.9,2.1-4.2c0,0,1-5,1.9-6.4c0,0,1.3-1,1.3-1
		s0-0.8,2.1-2.7c0,0-0.6-1.9,0-3.3c1.2-0.9,1.8-2.6,3.5-4.2V8.6l-5.8-0.1c-0.6,0.7-3.2,0.8-3.2,4c-0.5,0-2,0.7-2,1.5v4.1
		c0,0.3-0.3,0.7-1,1.9c-1-0.9,0.2-1.1-0.9-1.9c0,0-0.1-1.1-0.3-1.7c-0.1-0.3,0-0.7-0.2-0.9c0,0,1.1-2.8,0-4
		c-0.2-0.2-0.3-0.3-0.5-0.4V6.5z"/>
	<path fill="#FFFFFF" d="M26,48c1.5-1.9,0.5-4.6,0.5-7.6c0-0.9,0-2.2,0-2.2c0.6-0.6-0.6-0.9-0.9-1.5c-1-2.1,0-6,0-6
		c-1.2-0.8,0.2-0.1-1.4-1.6c-0.4,0.7-1-0.7-0.6-1c0,0,1.1-1.7,0-1.9c-1.6-0.2-2.7-1.1-2.4-1.3c0.5-0.6,2.2-2.7,2.9-4l1.9-3.5
		c1-0.9,0.1-3,0.1-5.3c0-1.4-0.9-4.1-2.5-5.2C22.9,6.4,22,6.5,22,6.5c-0.2-0.3-1.2-0.6-1.5-1.6C17.4,4.4,17.1,5,13.2,5l-2.7-0.1
		c-0.6,0-3.9,0.3-4.2,0.6H3.6C3.1,6.4,3.1,5.8,3.1,6.8C3.1,7.9,3,7,3.6,8l1.6,1.6c0.1,0.1,0.4,0.4,0.5,0.6c0.3,0,0.8,0,0.8,0
		C7.1,10.8,7,10.2,7,11.2c0,0.9,0.3,0.7-0.5,1.2v12.7L7,26c0,0,0.2,1.7,0,2.1c0,0-0.4,0.6-0.5,1l-0.1,3.6l0.4,0.8L7,36.1
		c0,0-0.2,0.6-0.8,0.6C6.3,38.4,6,42.3,6,46.1c0.2,2,0.4,4.7,0.4,5c0.4,3,0,4.2,0,8.6c-0.3,1.8-1,4.6-1.2,4.7
		c-0.4,0.4-1.6,0.8-1.6,0.8c0.1,0.1,0.4,0.3,0.6,0.5c0.2-0.3,2.1,0.2,2.6-0.1c0,0,4.6,0.8,4.8-0.2c1.6-1.5,1.6,0.9,2.3,0
		c0.2-0.3,3.5-0.8,3.5-0.8c0.3-0.8,1.4-1.5,2.4-2.2c1.2-0.9,3.3-1.8,3.3-1.8s0.2-2.2,0.7-3.5c0.4-1.1,1.5-2.6,1.5-2.6
		s0.7-1.5,0.8-2.5C26.5,50.5,25.6,48.4,26,48z M13.3,51.8c0,0,0.1-0.1,0.1-0.5c0.1-0.3,0.3-0.4,0.5-0.7v-9.3
		c-0.4-0.1-0.5-0.4-0.5-0.8c0-0.3,0.2-0.6,0.5-0.7l0.5-2.5c0,0-0.7-2.8,0-3.7c0.1-1.3,0-5.4,0-5.4L16,30c0,0,1.1,1.1,2,1.6
		c0,0,1.3,1.1,0.8,1.7c-0.4,0.3,0.9,1.2,0,1.2c0,0,0.9,0.9,0.4,1.9c0.7,0.3-0.3,2-0.3,2.7c0,2.1,0.8,0.6,0.8,3.2
		c-1.7,1.2,0.9,3.6-0.2,4.3c0.7,0.5-0.1,1.2,0.2,1.6c0.1,0.4-0.8,3.5-1,3.6c-0.3,1.6,0.1,3.7-0.8,4.4c-0.7,0.5-1.7,2.3-2.8,2.4
		l-1.1,1c-0.7,0.3-1.8,0.4-1.8,0.4s0.8-1.4,1-1.9l0,0c-0.1-0.1-0.1-2.1-0.1-2.1c0-2.2,0-3.3,0-3.9L13.3,51.8z M15.1,11.4
		c0.2-0.1,0.5-0.2,0.5-0.2c0.1,0.2,0.1,0.4,0,0.5l1.9-0.3h0.4c0.8,1.6,1.4,0.7,2.5,1.4l-1,0.7c-0.2,0.1,0.5,1.9,0.5,1.9
		c-0.7,0.4-0.5,3.7-0.5,4.3c-3,0.2-2.3,2.7-3.7,3.1c-0.1,0-0.3-0.4-1.3,0v-10C15.3,12.4,14.7,12.4,15.1,11.4z"/>
	<path fill="#FFFFFF" d="M123.9,51.4c0-0.4-0.5-1.5-0.7-1.8c-0.3-0.1-0.6-0.1-0.7-0.3c0-0.1,0.1-1.7,0.3-2c-0.1-0.4-0.7-5.5-0.9-5.9
		c-0.9,0.6-0.8-1.4-1-1.5c-0.3-0.4-0.2-4.8-0.5-5.3c-0.3-0.2-0.3-1.4-0.4-1.7c-0.5-1.1,0.4-0.8-1-1.3c-0.5-0.1,0-1.4-0.8-1.7
		c-2.2-2.6-2.4-1.1-3.9-1.5c0.6-0.8,0.5,0,0.5-1.9c3.2,0,5-2.9,5.9-6.7c0,0,0-1.3,0-2.2c0.2-0.2,0.3-1.1,0.5-1.2c0,0,0.2-2.6,0-3.1
		l-2.5-5.3c-0.4,0-1.9-2-3.5-2.2c-0.4-0.1-0.8,0-1.1,0c0,0-4-1.2-4.1-1.3h-2.7c-0.4-0.5-0.3-0.5-0.8-0.5c-0.5,0-0.5,0-1.2,0.3
		L98,4.4l1.9,0.4c0.1,0.2,3.8,2.4,3.9,4.2c0.4,0.2,0.6,0.1,0.9,0c0.2-0.1,0.3-0.4,0.5-0.4c0,0,1.7,0.4,1.9,0.6
		c-1.6,2.3-4,3.5-4.8,4.3c-0.2,1.2-0.2,3.4,0,4.6c1.1,0.8-0.1,0.4,1,1.5l0,2.6c0.2,0.1,0.1,2,0.3,2.1c0.4,0.7,0.3,1.8,0.3,1.8
		c0.2,0.1,0.2,1.4,0.4,1.5c0,0.6,0,1.8,0,1.8c0.2,0.1,0.3,0.8,0.5,1l0.2,2.1c0.2,0.1,0.1,1,0.3,1.1c0,0,0,13.7,0,14
		c0.2,0.1,0.3,0.2,0.5,0.4c0.1,0.6,0.2,1.9,0,2.3c-0.7,0.6-2.5,7-2.5,7c0,0.8,4.8,2.1,7.1,8.2c0.7-3,0.4-3.9,0.4-4.4
		c0.3-0.2,0.3-0.1,0.5-0.4c0.2-0.9-0.4-4.4-0.5-5.7c0.6-1.4,0.5-3.6,0.4-5.1c0-0.4-0.4-0.6-0.4-0.9c0-0.4,0.3-0.8,0.4-0.8
		c0-0.7-1.4-12.7-1.3-13.1c0-0.4,0.3-0.9,0.5-1.3c0.7-1.5,0.6-1.7,0.5-2.7c1.1,0,2.6,3.2,3.5,4.7c0.2,0.3-0.3,2.4-0.4,3.8
		c1.5,0.4,2.8,8.4,2.7,8.9c0.1,0.7,0,5.6-0.1,6.6c-0.3,1.6-2,5.4-1.8,5.9c1.7,0,2.2-0.3,5.5,2.8c0.4,0.4,2.2,0.9,2.2,0.9
		c1.2-5.9,1-6,1.3-6.7c0.5-1.3-0.2-1.6-0.1-1.8C124.4,52.2,123.2,52.4,123.9,51.4z M113.3,24.7c-0.3,0.3-1.1,0.9-2,1.1
		c-0.5,0.1-1.4,0-1.4,0V10.5c0.2,0,0.4,0,0.6,0c1.2,0,4.3,4.4,4.3,4.4c0.8,1.5,0.5,2.7,0.5,2.7v1.1c-0.2,0.1-0.3,0.8-0.4,0.7
		c0,0-0.2,0.9-0.1,1.5C114.5,21.6,113.8,24,113.3,24.7z"/>
	<path fill="#FFFFFF" d="M142.7,28.9c0.4-1.2,0-7.4,0-7.4c-0.2-0.1-0.5-1.6-0.7-1.8l0.1-5.2c-0.7-0.5-0.3-0.8-2-4.4
		c-0.2-0.5-1.7-1.3-2.5-2.6h-2.3c-0.1-0.2-0.3-0.3-0.4-0.5h-2.1c-0.1-0.2-0.3-0.3-0.4-0.5h-1.6c-0.3-0.3-0.4-0.5-0.6-0.8h-1.6
		c-1-1.2-3.5-1.4-3.7-2.2h-1.6c-0.1-0.2-0.3-0.3-0.4-0.5h-2.4c0.1,0.2,4.5,4.4,4.5,4.4v3c-0.2,0.2-0.3,0.3-0.5,0.4v3.9
		c-0.2,0.2-0.3,0.3-0.5,0.4v10.1c0.2,0.1,0.3,1.7,0.4,1.9l-0.2,3.5c0.2,0.1,0.3,0.2,0.5,0.4c-0.3,0.6,0,4.6,0,4.6
		c0,0.6,0.5,0.6,0.5,1.2v1.5c0,0.2,1.2,4.1,2.3,5.2l-0.9,9.3l1,2.3l0.6,1.5c0.1,0.3,0.5-0.1,0.5,0.5c0,0.6-1.5,1.1-2.3,1.4
		c0,0,0.7,1.9,0.6,3.1c-0.1,1.5-0.9,2.8-1.7,3.6c0.3,0.2,3.6-0.2,3.7-0.7c0.3-0.4,1.3,0.7,1.8,0.5c1.4-0.8,5.8-1.4,5.7-2.1
		c0.5-0.6,0.4-0.1,0.9-1.1c0.6-0.7,0.6-0.9,1-2.2l0.5-2.8c0.9-2.1,0-4.4,0.8-6.3c0.5-1.8-0.1-9.9-0.1-9.9c0.2-0.2-0.1-0.5,0.4-1.9
		l0.3-2.5c0.1-0.1,0.7-0.6,1.2-1.7c0.6-1.1,0.1-2.9,0.2-4.1C142.2,30,142.4,29.1,142.7,28.9z M129.7,27.9c0-1.4-0.2-8-0.2-8
		l-0.1-0.6l0.2-2.1c1.4-0.1,1.8,0,3.1,0c0.7,0,0.8,1.1,2,1.1c0,1.4,1.2,1.6,1.9,2.6c0.2,0.3,0.5,2.9,1.1,3.3v5.2
		c-0.7,0.4-1.2,3.7-1.2,3.7s-1.1,0.5-1,2.3c-0.4,0.9-0.4,11.1-0.4,11.1c-0.2,1.2-0.8,1.8-1.4,3.7c0.2,3.1-2.6,6.1-2.8,6.4l0.1-24.5
		c-0.5-0.2-1-2.6-1-3.3C130.1,28.8,129.9,28.1,129.7,27.9z"/>
	<path fill="#FFFFFF" d="M48.8,6.9c-1.3,0.4-2.7,1.5-2.7,2.6c0,1.5,0.5,0.4,0.5,1.6c0,0.9-0.8,0.7-0.8,1.4c0,2.5,0.5,11,0,14.3
		c0.3,0.1,0.2,1.4,0.5,1.6l0.2,1.4c-0.2,0.1-0.3,0.2-0.5,0.4c-0.7,0.7-0.3,2.1-0.3,2.6c0,0.2-0.2,0.6,0.1,1.9
		c0.1,0.3-0.1,1.5,0.2,1.6c0.1,0.9,0,2,0,2c-0.2,0.1-0.3,0.2-0.5,0.4c-1.1,1.1,0.1,1.8,0,4.1c0,0.3,0.6,2,0.8,2.1l-0.3,3.6
		c-0.2,0.1-0.3,0.2-0.5,0.4c-0.5,0.6-0.2,1.2,0,1.9c0.4,1.8,0.4,0.9,3.5,3.1l0.2,1.4c-0.6-0.2-0.8-0.2-1.2-0.2c0,0-0.2-0.2-1,0.2
		c-0.7-0.4-5.2-0.2-6.1,0.2c-1.3,1.2-1.1,0.8-1.2,0.8c-0.1,0-0.3-0.3-0.6-0.5c1.5-1.9,0.6-1.2,2.3-2.4c0.5-1.4,0.5-7,0.5-7
		c0.7-0.5,0.5-0.4,0.5-1.1c0-0.5-0.5-0.7-0.5-1.6c0-0.7,0.3-1.7,0.7-2.1l-0.2-21.5C43,19.9,43,20,43,19.7c0-0.2-0.3-0.3-0.5-0.4
		L41.8,8.4c-0.3-1.2-2.2-0.7-2.2-1.6c-1.2,0-0.5-0.1-1.5-0.8c0.2-0.2,0.4-0.5,0.5-0.7c1.1,0.3,8.6,0.4,9.6,0
		c0.2,0.3,0.4,0.5,0.6,0.8V6.9z"/>
	<path fill="#FFFFFF" d="M27.2,3.9h0.6c0.1,0.2,0.2,0.4,0.4,0.5h4c1.1,1.8,1.6,0.9,2,1.1c0,0,1.6,1.9,2.3,2.5v4.9
		c-0.4,0.3-0.5,0.4-0.5,0.8c0,0-0.1,0.4,1,1.2v2.2c-0.2,0.1-0.3,0.2-0.5,0.4v10.9c0.5,0.5,0.8,0.5,1,1c0.6,1.2,0,10.9,0,10.9
		c-0.2,0.1-0.3,0.2-0.5,0.4v3.8c0.2,0.1,0.3,0.3,0.5,0.4c0.1,0.5,0,2.9,0,2.9c-0.8,0.1-0.7,0.7-1,1.5c0.5,0.8,0.5,0.4,0.5,1.1
		c0,0.7,0,0.5-0.5,1v2.3c-0.2,0.1-0.3,0.2-0.5,0.4v3.4c-0.4,0.3-0.4,0.5-0.5,0.8c-0.2,0.7,0.5,0,0.5,1.9c1.5,0,2.4,0.3,4.3,0
		c0.4-0.7,0.6-0.7,1.4-1.2c1-0.2,4.2,1.8,6.9,0c-0.4-1.1,17.5-0.5,17.5-0.5v6.3c0,0,0.5,1.1,1,1.9h-6.6c-0.1-0.2-0.2-0.4-0.4-0.5
		h-1.6c-0.8-1.2-0.8,0.1-1.8-1.1c-2.4,0-3.4,0-4.9,0c-0.8-0.1-0.8-0.4-1-0.7c-1-0.1-12.8-0.1-12.8-0.1c-0.3-0.5-1.5-0.8-1.6-0.8
		h-1.9c0,0-3,1.8-3.3,2.7c0,0-3.7-0.6-4.7,0c-0.1-0.2-0.2-0.4-0.5-0.5c0.3-0.4,0.4-0.3,0.5-1l1.4-0.8c0.6-0.6,0.5-0.3,1.8-1.5v-2.3
		c0.1-0.1,0.5-0.3,0.5-0.7c0-0.3-0.2-0.5-0.5-0.7v-3.9c0.2-0.1,0.3-0.3,0.5-0.4v-1.8c0.7-0.5,0.5-0.4,0.5-1c0-0.8-0.6-1.2-1-1.5
		l0-6.7c0.4-0.2,0.3-0.2,0.5-0.5c-0.3-2,0-3.7,0-3.7c0.2-0.1,0.3-0.3,0.5-0.4v-5.4c0.2-0.1,0.7-0.8,0.6-1.5c-0.1-0.5-0.4-1-0.6-1.1
		V23c-0.2-0.2-0.3-0.3-0.5-0.4v-3.9c0.4-0.3,0.6-0.6,1-1c0,0,0.3-2.9,0-3.8c-0.2-0.2-0.3-0.3-0.5-0.4c0.3-0.4,0.9-2.1,0.9-2.6
		C31.5,9.4,30.7,8,30.7,8c-0.2-0.5-1.5-0.4-1.5-0.4c-0.4-0.2,0.2-0.8-2.5-2.7C27,4.5,27.1,4.6,27.2,3.9z"/>
</g>
</svg>
